Coordinates
version=1
nRows=25
nColumns=33
inDegrees=yes

Units are S.I. units (second, meters, Newtons, ...)
Angles are in degrees.

endheader
time	ground_thorax_rot_x	ground_thorax_rot_y	ground_thorax_rot_z	ground_thorax_tx	ground_thorax_ty	ground_thorax_tz	clav_prot_r	clav_elev_r	scapula_abduction_r	scapula_elevation_r	scapula_upward_rot_r	scapula_winging_r	shoulder_elv_r	plane_of_elev_r	axial_rot_r	elbow_flexion_r	pro_sup_r	wrist_flex_r	wrist_dev_r	clav_prot_l	clav_elev_l	scapula_abduction_l	scapula_elevation_l	scapula_upward_rot_l	scapula_winging_l	shoulder_elv_l	plane_of_elev_l	axial_rot_l	elbow_flexion_l	pro_sup_l	wrist_flex_l	wrist_dev_l	
7.3200	-39.121320	-14.984407	16.694980	-182.697529	821.170840	-11.324927	4.582434	-45.000000	34.068543	-45.000000	-19.136781	611.350898	-2092.446007	21.439233	-180.000000	1444.255321	-67.174700	19.544108	8.691414	15.630416	39.539334	-36.409956	-45.000000	-41.507779	1886.220952	-2439.148932	15.010653	180.000000	-361.708072	-141.122528	10.697298	-19.389919	
7.3300	-39.065178	-14.899889	16.714737	-184.079129	822.252707	-11.346394	4.644403	-45.000000	34.065918	-45.000000	-19.295328	611.230270	-2092.455104	21.555216	-180.000000	1444.231763	-67.283016	19.631469	8.651429	15.565289	39.572218	-36.380171	-45.000000	-41.323508	1886.508075	-2439.253815	14.981060	180.000000	-361.678446	-139.859626	10.732877	-19.632229	
7.3400	-39.023807	-14.805158	16.739423	-185.404864	823.305280	-11.354990	4.687079	-45.000000	34.069045	-45.000000	-19.427670	611.110742	-2092.468680	21.647373	-180.000000	1444.215216	-67.373926	19.709891	8.628465	15.465408	39.705332	-36.350926	-45.000000	-40.952877	1886.886880	-2439.418009	14.989850	180.000000	-361.568744	-138.673344	10.804333	-19.837037	
7.3500	-38.992041	-14.704243	16.745204	-186.607623	824.293899	-11.334136	4.668600	-45.000000	34.082895	-45.000000	-19.416521	611.030261	-2092.441220	21.683759	-180.000000	1444.217062	-67.468791	19.757297	8.606756	15.385265	39.849720	-36.304246	-45.000000	-40.478164	1887.188569	-2439.558036	14.904559	180.000000	-361.463868	-137.614596	10.845293	-20.005305	
7.3600	-38.968342	-14.585983	16.731278	-187.684123	825.217433	-11.283571	4.622677	-45.000000	34.104208	-45.000000	-19.336722	610.971297	-2092.403921	21.686320	-180.000000	1444.225051	-67.547482	19.792896	8.588145	15.311464	39.992252	-36.262583	-45.000000	-39.962345	1887.441933	-2439.686927	14.784164	180.000000	-361.358349	-136.685125	10.873547	-20.146663	
7.3700	-38.947053	-14.455741	16.698775	-188.623708	826.071593	-11.201307	4.571415	-45.000000	34.131650	-45.000000	-19.218855	610.934132	-2092.361697	21.675230	-180.000000	1444.242693	-67.599520	19.822937	8.575308	15.255431	40.099250	-36.220894	-45.000000	-39.500874	1887.625281	-2439.783116	14.661057	180.000000	-361.266130	-135.880359	10.883838	-20.265399	
7.3800	-38.922135	-14.320070	16.656040	-189.433793	826.861727	-11.090268	4.535284	-45.000000	34.156149	-45.000000	-19.103294	610.900893	-2092.321959	21.667418	-180.000000	1444.259020	-67.611998	19.857086	8.568696	15.215410	40.152273	-36.195024	-45.000000	-39.190534	1887.746692	-2439.847030	14.566215	180.000000	-361.212734	-135.180681	10.875616	-20.373768	
7.3900	-38.889231	-14.198775	16.616755	-190.130498	827.597748	-10.955658	4.526752	-45.000000	34.182163	-45.000000	-19.022224	610.873784	-2092.284459	21.676302	-180.000000	1444.268446	-67.572943	19.894811	8.569637	15.202654	40.139946	-36.168760	-45.000000	-39.085534	1887.802626	-2439.861942	14.522133	180.000000	-361.203832	-134.557517	10.846995	-20.476232	
7.4000	-38.847191	-14.093871	16.586869	-190.729403	828.288179	-10.802901	4.548999	-45.000000	34.204440	-45.000000	-18.974973	610.835702	-2092.246216	21.702885	-180.000000	1444.271242	-67.475089	19.940206	8.578620	15.206910	40.064809	-36.166495	-45.000000	-39.220539	1887.805416	-2439.838806	14.525742	180.000000	-361.257920	-133.987031	10.794627	-20.578545	
7.4100	-38.798745	-14.022554	16.569551	-191.245186	828.939985	-10.636535	4.580024	-45.000000	34.233562	-45.000000	-18.945955	610.804511	-2092.198231	21.733837	-180.000000	1444.269967	-67.310744	19.978143	8.597737	15.238398	39.961071	-36.141312	-45.000000	-39.485867	1887.771278	-2439.780831	14.569776	180.000000	-361.346298	-133.454692	10.722589	-20.669699	
7.4200	-38.752591	-13.971498	16.568063	-191.691474	829.557751	-10.460388	4.613306	-45.000000	34.262933	-45.000000	-18.918875	610.766985	-2092.141785	21.761536	-180.000000	1444.264143	-67.070918	20.014910	8.622555	15.264310	39.869321	-36.133509	-45.000000	-39.797191	1887.744387	-2439.725527	14.626164	180.000000	-361.453243	-132.950151	10.643906	-20.750763	
7.4300	-38.713990	-13.939460	16.571870	-192.079203	830.144244	-10.275294	4.638303	-45.000000	34.297885	-45.000000	-18.890375	610.742266	-2092.080562	21.779136	-180.000000	1444.253112	-66.754886	20.046823	8.645072	15.296512	39.789286	-36.116454	-45.000000	-40.062024	1887.708155	-2439.663661	14.658263	180.000000	-361.559769	-132.464896	10.557064	-20.823154	
7.4400	-38.687491	-13.903279	16.572599	-192.416332	830.700649	-10.079786	4.666826	-45.000000	34.332319	-45.000000	-18.860652	610.710305	-2092.026420	21.795130	-180.000000	1444.244103	-66.371403	20.085079	8.656559	15.306854	39.730459	-36.131739	-45.000000	-40.286155	1887.692740	-2439.621462	14.684018	180.000000	-361.656305	-131.985093	10.477320	-20.890505	
7.4500	-38.671544	-13.869203	16.565170	-192.707741	831.227848	-9.870107	4.690144	-45.000000	34.365813	-45.000000	-18.823973	610.684963	-2091.974059	21.806510	-180.000000	1444.238401	-65.942084	20.119604	8.654663	15.318543	39.683227	-36.137399	-45.000000	-40.418364	1887.673176	-2439.582041	14.686688	180.000000	-361.731851	-131.502295	10.393794	-20.950792	
7.4600	-38.668058	-13.829304	16.552848	-192.957712	831.727172	-9.643608	4.713620	-45.000000	34.398516	-45.000000	-18.774828	610.651603	-2091.925228	21.818840	-180.000000	1444.238935	-65.496874	20.153433	8.631700	15.310098	39.662442	-36.164858	-45.000000	-40.501485	1887.680341	-2439.563999	14.692996	180.000000	-361.793226	-131.004226	10.319412	-21.006572	
7.4700	-38.674783	-13.791623	16.534729	-193.169687	832.200775	-9.399129	4.732721	-45.000000	34.429337	-45.000000	-18.710103	610.620814	-2091.873657	21.829762	-180.000000	1444.245953	-65.072963	20.180285	8.594304	15.306593	39.642546	-36.188669	-45.000000	-40.529482	1887.677023	-2439.544740	14.671967	180.000000	-361.850013	-130.490693	10.231037	-21.059429	
7.4800	-38.692503	-13.753839	16.505076	-193.348315	832.652041	-9.139158	4.745445	-45.000000	34.468142	-45.000000	-18.630248	610.586901	-2091.825053	21.838573	-180.000000	1444.259920	-64.706163	20.199929	8.537405	15.294866	39.642359	-36.215638	-45.000000	-40.549120	1887.694109	-2439.539864	14.672370	180.000000	-361.907283	-129.956581	10.150362	-21.109481	
7.4900	-38.718214	-13.720078	16.469260	-193.499221	833.085636	-8.869195	4.753011	-45.000000	34.506156	-45.000000	-18.537281	610.557113	-2091.771495	21.847671	-180.000000	1444.280785	-64.421539	20.212207	8.478885	15.294659	39.631334	-36.233410	-45.000000	-40.542770	1887.696633	-2439.528739	14.650325	180.000000	-361.970682	-129.408534	10.048192	-21.157166	
7.5000	-38.751387	-13.685978	16.420509	-193.629450	833.507179	-8.597677	4.751846	-45.000000	34.555289	-45.000000	-18.436964	610.531464	-2091.722554	21.854588	-180.000000	1444.305042	-64.233387	20.220283	8.411266	15.291736	39.640402	-36.242989	-45.000000	-40.539272	1887.718845	-2439.525932	14.658319	180.000000	-362.043623	-128.846196	9.957049	-21.203401	
7.5100	-38.793047	-13.649724	16.369666	-193.745680	833.922955	-8.333256	4.752334	-45.000000	34.593826	-45.000000	-18.329170	610.506258	-2091.671049	21.866275	-180.000000	1444.336363	-64.142164	20.232266	8.358509	15.292870	39.635140	-36.262468	-45.000000	-40.510675	1887.732077	-2439.518406	14.635856	180.000000	-362.118056	-128.280593	9.844987	-21.246794	
7.5200	-38.841581	-13.611927	16.304153	-193.853786	834.339484	-8.083851	4.742935	-45.000000	34.642808	-45.000000	-18.222471	610.486898	-2091.628434	21.871646	-180.000000	1444.363958	-64.142017	20.246144	8.301720	15.292613	39.658184	-36.267261	-45.000000	-40.485742	1887.763113	-2439.513825	14.653003	180.000000	-362.194409	-127.712798	9.754445	-21.288176	
7.5300	-38.898892	-13.573061	16.242214	-193.958855	834.763349	-7.856102	4.736035	-45.000000	34.679546	-45.000000	-18.117758	610.465187	-2091.587142	21.876777	-180.000000	1444.393904	-64.212370	20.268138	8.268350	15.296044	39.663699	-36.280406	-45.000000	-40.437750	1887.785669	-2439.498663	14.645851	180.000000	-362.261950	-127.148541	9.645757	-21.323770	
7.5400	-38.964103	-13.530230	16.168476	-194.064900	835.200573	-7.655095	4.725336	-45.000000	34.718299	-45.000000	-18.018657	610.445735	-2091.557042	21.875546	-180.000000	1444.423169	-64.333479	20.303497	8.234921	15.294549	39.695139	-36.290619	-45.000000	-40.393779	1887.820214	-2439.485126	14.662318	180.000000	-362.331912	-126.588886	9.557889	-21.359714	
7.5500	-39.036743	-13.489632	16.099482	-194.174563	835.656594	-7.483710	4.717490	-45.000000	34.743192	-45.000000	-17.920865	610.423229	-2091.528500	21.874598	-180.000000	1444.457569	-64.477322	20.349085	8.232530	15.297186	39.698304	-36.311424	-45.000000	-40.327705	1887.848701	-2439.468553	14.651544	180.000000	-362.392678	-126.042184	9.448075	-21.389186	
7.5600	-39.114421	-13.442627	16.016988	-194.288232	836.135708	-7.341303	4.710296	-45.000000	34.769279	-45.000000	-17.825363	610.400323	-2091.506737	21.873747	-180.000000	1444.493406	-64.626855	20.412253	8.223213	15.291522	39.731952	-36.337046	-45.000000	-40.268377	1887.883952	-2439.458328	14.653121	180.000000	-362.458666	-125.509325	9.362650	-21.423297	
